PathFileType	4	(X/Y/Z)	C:/Users/opensim2020/Desktop/walking_exp_matlab/subject02_walking06_straight_04.trc																																																																																																																									
DataRate	CameraRate	NumFrames	NumMarkers	Units	OrigDataRate	OrigDataStartFrame	OrigNumFrames																																																																																																																					
100	100	4	41	mm	100	2655	216																																																																																																																					
Frame#	Time	LFHD			RFHD			LBHD			RBHD			C7			T10			CLAV			STRN			RBAK			LSHO			LUPA			LELB			LFRM			LWRA			LWRB			LFIN			RSHO			RUPA			RELB			RFRM			RWRA			RWRB			RFIN			LASI			RASI			LPSI			RPSI			LTHI			LKNE			LTIB			LANK			LHEE			LTOE			RTHI			RKNE			RTIB			RANK			RHEE			RTOE			*39			*40		
		X1	Y1	Z1	X2	Y2	Z2	X3	Y3	Z3	X4	Y4	Z4	X5	Y5	Z5	X6	Y6	Z6	X7	Y7	Z7	X8	Y8	Z8	X9	Y9	Z9	X10	Y10	Z10	X11	Y11	Z11	X12	Y12	Z12	X13	Y13	Z13	X14	Y14	Z14	X15	Y15	Z15	X16	Y16	Z16	X17	Y17	Z17	X18	Y18	Z18	X19	Y19	Z19	X20	Y20	Z20	X21	Y21	Z21	X22	Y22	Z22	X23	Y23	Z23	X24	Y24	Z24	X25	Y25	Z25	X26	Y26	Z26	X27	Y27	Z27	X28	Y28	Z28	X29	Y29	Z29	X30	Y30	Z30	X31	Y31	Z31	X32	Y32	Z32	X33	Y33	Z33	X34	Y34	Z34	X35	Y35	Z35	X36	Y36	Z36	X37	Y37	Z37	X38	Y38	Z38	X39	Y39	Z39	X40	Y40	Z40	X41	Y41	Z41
																																																																																																																												
1	0	-747.57867	1722.33752	940.63684	-762.07745	1702.4873	1083.60498	-872.2088	1640.03687	918.0625	-898.50659	1617.6842	1057.87451	-930.89532	1502.08154	975.03668	-987.15924	1227.63599	977.67419	-792.49536	1432.276	986.26874	-742.68097	1260.70776	999.79382	-1000.64532	1327.27686	1023.53485	-829.4126	1479.27283	808.24908	-797.49896	1282.38135	726.85541	-756.62787	1142.82874	718.29968	-664.34027	1052.75891	758.70752	-564.73865	1016.87543	848.2807	-578.74768	979.9859	807.07904	-521.85059	957.09296	830.98706	-891.18115	1462.21851	1170.18774	-972.71832	1284.44275	1236.68994	-989.87262	1140.49609	1261.4231	-985.18335	1021.40295	1289.61658	-951.00604	889.18005	1287.69214	-1005.20752	893.23627	1303.47705	-979.50055	826.78247	1318.26282	-756.76312	957.08887	859.93134	-745.91602	963.91766	1114.98328	-961.90894	1003.06598	947.87616	-964.46808	1012.26569	1062.35754	-873.59692	650.31384	811.36121	-942.00488	464.71768	831.6402	-1083.49109	333.31424	814.99847	-1202.1427	141.33133	834.49658	-1251.53271	136.06325	879.92566	-1083.11743	37.27806	847.51898	-755.70355	676.55994	1210.42786	-688.45911	477.71835	1183.67529	-694.30176	290.72183	1205.63904	-686.83502	96.14082	1183.90723	-717.49707	42.0266	1131.24207	-531.4447	46.03547	1197.54016	-862.29968	1780.31323	1019.97284	-2845.96631	1034.03491	3357.35693
2	0.01	-737.20099	1723.39819	944.12549	-751.45044	1703.57214	1087.22803	-861.54309	1640.82104	921.88605	-887.72833	1618.57434	1061.62939	-920.54663	1502.99414	979.01062	-976.6405	1228.43152	982.0896	-782.18457	1433.20264	989.77814	-732.08215	1262.01746	1003.47766	-990.07074	1328.47656	1028.70471	-819.96045	1480.07703	811.9942	-789.76764	1282.7157	731.0849	-750.60144	1142.73279	722.9798	-659.69379	1050.4325	761.85699	-560.17914	1011.36682	850.0304	-575.69598	974.97864	809.09015	-518.95715	950.79559	831.90411	-879.5899	1463.70044	1174.1853	-959.40869	1284.94897	1241.81641	-975.86621	1141.00977	1265.31274	-972.36395	1022.04022	1293.2616	-940.11926	889.17151	1290.74512	-994.11914	894.10767	1307.0177	-969.45276	826.97217	1321.21167	-744.8418	957.97858	865.37689	-734.12469	966.02429	1120.06531	-949.84564	1003.80389	951.23181	-953.35248	1013.41779	1066.40906	-859.77808	650.8299	815.36829	-924.83197	465.46664	834.03784	-1070.85925	339.11227	819.86249	-1194.29834	150.4337	838.89758	-1241.37854	146.96944	886.11389	-1083.20837	37.49087	848.08643	-743.7135	677.49023	1214.38525	-679.39258	477.29266	1186.1145	-688.1405	289.77957	1206.43726	-684.50659	95.96638	1183.68311	-717.16083	42.21695	1131.32727	-529.89697	44.46533	1195.08936	-851.90289	1781.36194	1023.79797	NaN	NaN	NaN
3	0.02	-726.86481	1724.71179	947.54529	-740.90533	1704.86768	1090.69128	-851.01044	1641.98779	925.64319	-877.1272	1619.68787	1065.22107	-910.90619	1504.2262	983.05688	-966.09045	1229.40051	986.54987	-772.09583	1434.74402	993.1283	-721.59222	1263.53601	1007.04498	-978.96539	1329.54395	1033.42871	-810.55341	1481.15405	815.66095	-782.35986	1283.27258	735.18256	-744.6745	1142.87305	727.62213	-655.59009	1047.9834	764.86084	-556.16052	1005.42816	851.2951	-573.04016	970.15729	810.05554	-516.68127	944.23785	831.94971	-868.16144	1465.4845	1178.04114	-945.69415	1285.59546	1246.82935	-961.46643	1141.83398	1269.22107	-958.92853	1022.92993	1296.89661	-928.6488	889.51672	1293.69873	-982.32446	895.34222	1310.82202	-958.87677	827.45618	1323.9104	-732.78564	958.60602	871.94769	-722.66711	968.49298	1125.24438	-938.09192	1004.66888	954.54803	-942.45093	1014.32312	1070.45813	-845.2204	651.09637	819.28577	-906.64081	466.14731	836.62561	-1056.48914	344.99649	825.24847	-1184.36072	159.62332	843.8689	-1229.23145	157.97493	893.17456	-1082.99207	37.80426	848.55414	-731.59558	678.19525	1217.96411	-671.2915	476.84744	1188.17371	-683.56	289.2453	1206.63831	-683.05939	95.83178	1183.22729	-716.81219	42.45412	1131.14099	-528.80914	43.61745	1194.48181	-841.62653	1782.54541	1027.15906	NaN	NaN	NaN
4	0.03	-716.87842	1725.77319	951.19775	-730.42877	1706.19153	1094.13965	-841.07556	1643.41272	928.93353	-866.68823	1620.98877	1068.73767	-900.93555	1505.54272	986.94037	-955.51385	1230.47205	991.08112	-762.02185	1436.37683	996.4408	-711.13019	1265.18884	1010.59271	-968.11639	1330.72717	1038.15979	-801.61261	1482.55859	819.03137	-775.06732	1284.05713	739.27661	-738.8421	1143.28467	732.3327	-652.0575	1045.4198	767.73523	-553.026	999.11218	851.89703	-571.71039	964.3905	811.26526	-515.64722	936.64819	832.21783	-856.89362	1467.5155	1181.71484	-931.9433	1286.67114	1252.20703	-946.70331	1142.85107	1273.09705	-945.06049	1024.17944	1300.69373	-916.56689	890.11493	1296.67737	-969.95264	896.77386	1314.58411	-947.61658	828.21198	1326.81616	-721.66809	959.70709	877.83594	-711.43542	971.23694	1130.43726	-926.90942	1005.77747	957.97784	-931.69177	1015.20178	1074.35181	-830.13989	651.05621	823.25482	-887.75922	466.72961	839.55042	-1040.2146	350.5032	831.34454	-1172.35852	168.65605	849.46484	-1214.73254	168.58369	900.77191	-1082.1803	38.47134	849.75848	-719.96283	678.74689	1220.89026	-664.04022	476.51358	1189.5675	-680.13623	289.13742	1206.99731	-682.14014	95.96298	1182.8949	-716.50684	42.5085	1130.87598	-528.38617	42.9221	1195.16357	-831.27551	1783.98254	1030.60547	NaN	NaN	NaN
